<?xml version="1.0" encoding="iso-8859-1"?>
<!-- Generator: Adobe Illustrator 19.0.0, SVG Export Plug-In . SVG Version: 6.00 Build 0)  -->
<svg version="1.1" id="Capa_1" xmlns="http://www.w3.org/2000/svg" xmlns:xlink="http://www.w3.org/1999/xlink" x="0px" y="0px"
	 viewBox="0 0 215.158 215.158" style="enable-background:new 0 0 215.158 215.158;" xml:space="preserve">
<g>
	<path style="fill:#9E9C9A;" d="M108.087,215.158c30.051,0,45.304-21.126,59.28-39.001C185.648,152.774,226.92-1.301,197.28,0.009
		c-22.019,0.972-60.297,63.435-60.234,68.039c0.063,4.605-9.198,11.1-12.258,9.136c-3.063-1.963-11.727-3.152-17.183-3.125
		c-4.739,0.024-14.032,0.954-17.088,2.925c-3.056,1.972-12.334-4.495-12.284-9.101c0.05-4.606-38.397-66.964-60.419-67.876
		c-29.642-1.229,12.048,152.731,30.393,176.066C62.229,193.912,78.036,215.158,108.087,215.158z"/>
	<path style="fill:#BAB9B9;" d="M88.388,202.671c-3.181,0-3.378-4.094-3.378-4.094v-8.854h46.155l-0.965,8.854
		c0,0-0.197,4.094-3.378,4.094c-8.859,0-5.856,7.422-18.734,7.422C96.59,210.094,97.827,202.671,88.388,202.671z"/>
	<path style="fill:#F9B9B9;" d="M99.517,192.386c0,0,3.47,2.901,8.087,2.901c4.617,0,8.47-2.013,8.47-2.013l-6.695-8.485
		l-1.775-7.917L99.517,192.386z"/>
	<path style="fill:#BAB9B9;" d="M107.605,182.123c0,0,17.876,29.594,35.879,14.116c17.195-14.782,8.537-24.752,10.362-29.449
		c2.681-6.903,26.132-7.833,20.097-39.74c-6.917-36.571-61.023-35.539-61.023-35.539h-11.886c0,0-54.106-1.032-61.024,35.539
		c-6.035,31.906,16.835,33.403,20.668,39.74c3.025,5-6.258,17.138,11.448,29.449C94.953,212.109,107.605,182.123,107.605,182.123z"
		/>
	<g>
		<path style="fill:#B9EF9C;" d="M119.471,137.949c0,0-3.222-13.626,13.447-19.667c11.795-4.278,19.877,4.512,20.57,7.161
			c0.692,2.649,0.063,18.093-9.605,20.624C129.975,149.708,119.471,137.949,119.471,137.949z"/>
		<circle style="fill:#4C4845;" cx="136.547" cy="130.282" r="12.339"/>
		<circle style="fill:#FFFFFF;" cx="138.702" cy="123.908" r="3.788"/>
	</g>
	<g>
		<path style="fill:#B9EF9C;" d="M93.555,137.949c0,0,3.222-13.626-13.447-19.667c-11.795-4.278-19.877,4.512-20.57,7.161
			c-0.692,2.649-0.063,18.093,9.606,20.624C83.051,149.708,93.555,137.949,93.555,137.949z"/>
		<circle style="fill:#4C4845;" cx="76.479" cy="130.282" r="12.338"/>
		<circle style="fill:#FFFFFF;" cx="74.324" cy="123.908" r="3.788"/>
	</g>
	<path style="fill:#F9B9B9;" d="M188.066,110.743c-5.046-1.494-44.213-34.66-46.09-39.021c-2.95-6.853,43.829-68.878,54.568-67.12
		C213.73,7.416,193.113,112.237,188.066,110.743z"/>
	<path style="fill:#9E9C9A;" d="M131.066,197.046c-11.449,0-20.97-8.204-23.034-19.053h-0.428c0,12.957,10.504,23.461,23.462,23.461
		s23.464-10.504,23.464-23.461l0,0C152.467,188.841,142.515,197.046,131.066,197.046z"/>
	<path style="fill:#9E9C9A;" d="M84.141,197.046c-11.449,0-21.397-8.204-23.461-19.053l0,0c0,12.957,10.504,23.461,23.461,23.461
		c12.957,0,23.464-10.504,23.464-23.461h-0.428C105.114,188.841,95.59,197.046,84.141,197.046z"/>
	<path style="fill:#F9B9B9;" d="M110.89,162.394h-6.569c-8.843,0-5.985,7.949-3.336,7.949c3.793,0,4.6,1.833,5.992,2.283v15.273
		h1.256v-15.271c1.392-0.451,2.198-2.285,5.991-2.285C116.872,170.343,119.733,162.394,110.89,162.394z"/>
	<path style="fill:#F9B9B9;" d="M28.107,110.743c5.046-1.494,44.213-34.66,46.09-39.021c2.95-6.853-43.829-68.878-54.568-67.12
		C2.443,7.416,23.06,112.237,28.107,110.743z"/>
	<path style="opacity:0.2;fill:#FFFFFF;" d="M107.604,74.059c-4.739,0.024-14.032,0.954-17.088,2.925
		c-3.056,1.972-12.334-4.495-12.284-9.101c0.05-4.606-38.397-66.964-60.419-67.876c-29.642-1.229,12.048,152.731,30.393,176.066
		c14.024,17.838,29.83,39.084,59.881,39.084V74.063C107.926,74.062,107.76,74.058,107.604,74.059z"/>
</g>
<g>
</g>
<g>
</g>
<g>
</g>
<g>
</g>
<g>
</g>
<g>
</g>
<g>
</g>
<g>
</g>
<g>
</g>
<g>
</g>
<g>
</g>
<g>
</g>
<g>
</g>
<g>
</g>
<g>
</g>
</svg>
